<?xml version="1.0" encoding="UTF-8"?><svg id="Camada_2" xmlns="http://www.w3.org/2000/svg" viewBox="0 0 117.81 22.71"><defs><style>.cls-1,.cls-2{fill:#0072bd;}.cls-2{fill-rule:evenodd;}</style></defs><g id="Camada_1-2"><path class="cls-1" d="M61.89,5.31c-.69,0-1.24.56-1.24,1.24s.56,1.24,1.24,1.24,1.24-.56,1.24-1.24-.56-1.24-1.24-1.24Z"/><path class="cls-1" d="M56.37,6.9c-2.88,0-5.22,2.34-5.22,5.22s2.34,5.22,5.22,5.22,5.22-2.34,5.22-5.22-2.34-5.22-5.22-5.22ZM56.37,15.46c-1.84,0-3.34-1.5-3.34-3.34s1.5-3.34,3.34-3.34,3.34,1.5,3.34,3.34-1.5,3.34-3.34,3.34Z"/><path class="cls-1" d="M60.51,22.71h-8.46c-3.51,0-6.36-2.85-6.36-6.36V7.89c0-3.51,2.85-6.36,6.36-6.36h8.46c3.51,0,6.36,2.85,6.36,6.36v8.46c0,3.51-2.85,6.36-6.36,6.36ZM52.06,3.52c-2.41,0-4.37,1.96-4.37,4.37v8.46c0,2.41,1.96,4.37,4.37,4.37h8.46c2.41,0,4.37-1.96,4.37-4.37V7.89c0-2.41-1.96-4.37-4.37-4.37h-8.46Z"/><path class="cls-1" d="M117.81,8.55c0-3.32-2.69-6-6-6h-15.35c-3.32,0-6,2.69-6,6v7.14c0,3.32,2.69,6,6,6h15.35c3.32,0,6-2.69,6-6v-7.14ZM108.78,12.65l-6.88,3.41c-.27.15-1.19-.05-1.19-.36v-6.99c0-.31.92-.51,1.19-.35l6.59,3.59c.28.16.57.56.29.71Z"/><path class="cls-1" d="M0,22.17l1.59-5.93c-.9-1.62-1.37-3.44-1.37-5.29C.22,4.91,5.13,0,11.17,0s10.95,4.91,10.95,10.95-4.91,10.95-10.95,10.95c-1.81,0-3.6-.46-5.2-1.33l-5.96,1.6ZM6.26,18.35l.38.22c1.38.82,2.95,1.26,4.53,1.26,4.9,0,8.88-3.98,8.88-8.88S16.06,2.07,11.17,2.07,2.29,6.05,2.29,10.95c0,1.62.45,3.21,1.3,4.6l.23.38-.89,3.31,3.33-.89Z"/><path class="cls-2" d="M15.24,12.47c-.45-.27-1.04-.57-1.57-.35-.41.17-.67.8-.93,1.13-.14.17-.3.19-.51.11-1.53-.61-2.7-1.63-3.54-3.04-.14-.22-.12-.39.05-.59.26-.3.57-.64.64-1.05.07-.4-.12-.88-.29-1.24-.21-.46-.45-1.12-.91-1.38-.42-.24-.98-.11-1.36.2-.65.53-.97,1.36-.96,2.19,0,.23.03.47.09.69.13.54.38,1.05.67,1.53.21.36.44.72.69,1.06.82,1.11,1.84,2.08,3.01,2.8.59.36,1.22.68,1.88.89.74.24,1.39.5,2.19.35.83-.16,1.65-.67,1.98-1.48.1-.24.15-.5.09-.75-.11-.52-.82-.83-1.23-1.08Z"/></g></svg>