<?xml version="1.0" encoding="UTF-8"?><svg id="Camada_2" xmlns="http://www.w3.org/2000/svg" viewBox="0 0 140.34 50.28"><defs><style>.cls-1{fill:#fff;}</style></defs><g id="Camada_1-2"><path class="cls-1" d="M5.43,35.99L.03,12.74c-.15-.67.35-1.3,1.03-1.3h7.08c.52,0,.97.38,1.05.9l2.61,16.97h1.72l2.61-16.97c.08-.52.53-.9,1.05-.9h7.13c.68,0,1.19.64,1.03,1.3l-5.4,23.25c-.11.48-.54.82-1.03.82H6.46c-.49,0-.92-.34-1.03-.82Z"/><path class="cls-1" d="M37.62,22.68v13.07c0,.59-.48,1.06-1.06,1.06h-7.2c-.59,0-1.06-.48-1.06-1.06V12.5c0-.59.48-1.06,1.06-1.06h7.2c.59,0,1.06.48,1.06,1.06v4.24c1.42-3.19,3.79-5.39,6.63-5.88.64-.11,1.22.41,1.22,1.06v8.22c0,.55-.42,1.02-.98,1.06-2.59.16-5.48.88-6.87,1.49Z"/><path class="cls-1" d="M58.18,20.61v15.14c0,.59-.48,1.06-1.06,1.06h-7.2c-.59,0-1.06-.48-1.06-1.06V12.5c0-.59.48-1.06,1.06-1.06h7.2c.59,0,1.06.48,1.06,1.06v3.65c1.82-3.29,5.2-5.4,8.88-5.4s6.58,2.11,7.56,5.69c1.86-3.49,5.4-5.69,9.18-5.69,4.96,0,8.05,3.44,8.05,9.03v15.97c0,.59-.48,1.06-1.06,1.06h-7.25c-.59,0-1.06-.48-1.06-1.06v-12.88c0-2.36-1.13-3.83-3.53-3.83-1.57,0-2.95.74-3.88,1.52v15.18c0,.59-.48,1.06-1.06,1.06h-7.25c-.59,0-1.06-.48-1.06-1.06v-12.88c0-2.36-1.08-3.83-3.48-3.83-1.62,0-3.09.79-4.02,1.57Z"/><path class="cls-1" d="M108,27.39h-2.65v8.36c0,.59-.48,1.06-1.06,1.06h-7.2c-.59,0-1.06-.48-1.06-1.06V1.06c0-.59.48-1.06,1.06-1.06h7.2c.59,0,1.06.48,1.06,1.06v19.21h2.45l3.88-8.23c.18-.37.55-.61.96-.61h7.36c.79,0,1.31.84.94,1.55l-5.25,10.23,5.84,12.07c.34.7-.17,1.52-.96,1.52h-7.73c-.42,0-.8-.25-.97-.63l-3.89-8.79Z"/><path class="cls-1" d="M136.61,18.55v17.2c0,.59-.48,1.06-1.06,1.06h-7.25c-.59,0-1.06-.48-1.06-1.06v-17.2h-2.62c-.59,0-1.06-.47-1.06-1.06v-5c0-.59.47-1.06,1.06-1.06h2.62v-6.06c0-.59.48-1.06,1.06-1.06h7.25c.59,0,1.06.48,1.06,1.06v6.06h2.67c.59,0,1.06.47,1.06,1.06v5c0,.59-.47,1.06-1.06,1.06h-2.67Z"/><path class="cls-1" d="M7.09,50.22v-4.82h1.43c.94,0,1.64.2,2.12.6s.72,1,.72,1.78c0,.49-.11.92-.32,1.28-.21.36-.51.65-.9.85-.39.2-.85.3-1.37.3h-1.68ZM7.98,49.44h.77c.57,0,1-.14,1.29-.41.29-.27.44-.68.44-1.2s-.15-.96-.45-1.24c-.3-.27-.76-.41-1.38-.41h-.67v3.26Z"/><path class="cls-1" d="M17.31,46.16h-2.24v1.24h2.13v.76h-2.13v1.3h2.32l-.06.76h-3.12v-4.82h3.1v.76Z"/><path class="cls-1" d="M21.57,50.28c-.57,0-1.01-.13-1.32-.38-.32-.25-.5-.62-.54-1.11l.83-.12c.08.58.44.87,1.08.87.28,0,.49-.06.64-.17.15-.11.23-.27.23-.46,0-.18-.08-.32-.23-.41-.15-.09-.4-.18-.74-.26-.32-.08-.59-.17-.81-.27-.23-.11-.4-.25-.52-.43s-.18-.42-.18-.72.07-.54.22-.76.35-.4.61-.52c.26-.13.56-.19.9-.19.45,0,.81.12,1.1.35.29.24.45.56.5.97l-.77.13c-.1-.47-.38-.71-.87-.71-.24,0-.43.06-.57.18-.15.12-.22.28-.22.48s.07.35.22.46c.14.11.39.2.74.28.31.07.58.16.81.25.23.1.4.23.53.4.12.17.19.41.19.71,0,.28-.08.53-.23.74-.15.21-.36.38-.63.51-.27.12-.58.18-.94.18Z"/><path class="cls-1" d="M26.09,50.22v-4.82h.88v4.82h-.88Z"/><path class="cls-1" d="M32.34,47.71h1.91v2.51h-.7l-.07-.52c-.16.21-.36.36-.6.44s-.51.13-.81.13c-.46,0-.86-.1-1.2-.29-.34-.19-.6-.46-.79-.82-.19-.36-.28-.78-.28-1.27s.11-.96.32-1.34.51-.69.9-.9c.39-.22.84-.33,1.36-.33.43,0,.79.08,1.09.24.3.16.55.4.75.71l-.68.5c-.12-.22-.29-.38-.5-.48-.21-.1-.44-.16-.69-.16-.33,0-.63.07-.87.22-.25.15-.44.35-.57.61-.13.26-.2.57-.2.92,0,.51.13.9.38,1.18.26.28.61.42,1.06.42.21,0,.41-.04.6-.12.19-.08.34-.19.46-.34.12-.15.18-.34.18-.56v-.04h-1.07v-.72Z"/><path class="cls-1" d="M40.3,45.4h.85v4.82h-.77l-2.4-3.36v3.36h-.85v-4.82h.77l2.4,3.36v-3.36Z"/><path class="cls-1" d="M47.86,50.22v-4.82h1.43c.94,0,1.64.2,2.12.6s.72,1,.72,1.78c0,.49-.11.92-.32,1.28-.21.36-.51.65-.9.85-.39.2-.85.3-1.37.3h-1.68ZM48.75,49.44h.77c.57,0,1-.14,1.29-.41.29-.27.44-.68.44-1.2s-.15-.96-.45-1.24c-.3-.27-.76-.41-1.38-.41h-.67v3.26Z"/><path class="cls-1" d="M58.08,46.16h-2.24v1.24h2.13v.76h-2.13v1.3h2.32l-.06.76h-3.12v-4.82h3.1v.76Z"/><path class="cls-1" d="M67.63,46.16h-2.24v1.24h2.13v.76h-2.13v1.3h2.32l-.06.76h-3.12v-4.82h3.1v.76Z"/><path class="cls-1" d="M70.84,50.22h-.98l1.63-2.44-1.53-2.38h1l1.04,1.63,1.05-1.63h.94l-1.54,2.33,1.61,2.48h-1.01l-1.09-1.72-1.13,1.72Z"/><path class="cls-1" d="M77.46,50.22h-.86v-4.82h1.7c.62,0,1.1.13,1.43.38.33.25.5.62.5,1.1s-.18.86-.54,1.14c-.36.27-.88.41-1.56.41h-.67v1.79ZM78.26,46.12h-.8v1.58h.71c.41,0,.7-.07.89-.2.19-.13.28-.33.28-.61s-.09-.47-.26-.59c-.17-.12-.45-.18-.82-.18Z"/><path class="cls-1" d="M85.97,46.16h-2.24v1.24h2.13v.76h-2.13v1.3h2.32l-.06.76h-3.12v-4.82h3.1v.76Z"/><path class="cls-1" d="M92.54,49.38l.2.69c-.09.07-.2.12-.33.16-.13.04-.27.06-.41.06-.51,0-.9-.22-1.19-.67l-.7-1.07c-.07-.11-.15-.19-.22-.24-.08-.05-.16-.07-.25-.07h-.03v1.99h-.86v-4.82h1.5c.61,0,1.07.13,1.39.38s.47.6.47,1.05c0,.27-.06.5-.18.69-.12.19-.28.34-.48.46-.2.11-.43.19-.69.22.14.07.26.19.37.37l.38.56c.1.14.19.24.28.3.09.05.2.08.34.08.16,0,.3-.04.43-.12ZM90.18,46.12h-.58v1.42h.54c.37,0,.64-.06.82-.17.18-.11.26-.29.26-.54,0-.47-.35-.71-1.05-.71Z"/><path class="cls-1" d="M95.05,50.22v-4.82h.88v4.82h-.88Z"/><path class="cls-1" d="M102.06,46.16h-2.24v1.24h2.13v.76h-2.13v1.3h2.32l-.06.76h-3.12v-4.82h3.1v.76ZM101.74,44.94h-.78l-.45-.62-.45.62h-.78l.89-1.13h.69l.89,1.13Z"/><path class="cls-1" d="M108,45.4h.85v4.82h-.77l-2.4-3.36v3.36h-.85v-4.82h.77l2.4,3.36v-3.36Z"/><path class="cls-1" d="M115.96,49.29c-.19.32-.45.57-.79.74-.33.17-.71.26-1.13.26-.49,0-.92-.1-1.27-.29-.35-.19-.62-.46-.81-.82-.19-.36-.28-.78-.28-1.27s.1-.96.31-1.34c.21-.38.5-.69.87-.9.37-.22.8-.33,1.29-.33.42,0,.77.08,1.07.24.3.16.54.4.74.72l-.68.49c-.12-.23-.28-.39-.48-.5-.2-.1-.42-.16-.66-.16-.31,0-.58.07-.81.22-.24.15-.42.36-.55.62-.13.26-.2.57-.2.92,0,.5.13.89.39,1.17.26.28.62.42,1.09.42.26,0,.5-.06.71-.18.22-.12.39-.3.53-.54l.66.51Z"/><path class="cls-1" d="M118.44,50.22v-4.82h.88v4.82h-.88Z"/><path class="cls-1" d="M121.79,50.22l2.06-4.82h.75l1.97,4.82h-.9l-.43-1.1h-2.1l-.45,1.1h-.9ZM123.44,48.38h1.51l-.75-1.89-.77,1.89Z"/><path class="cls-1" d="M130.47,50.28c-.57,0-1.01-.13-1.32-.38-.32-.25-.5-.62-.54-1.11l.83-.12c.08.58.44.87,1.08.87.28,0,.49-.06.64-.17.15-.11.23-.27.23-.46,0-.18-.08-.32-.23-.41-.15-.09-.4-.18-.74-.26-.32-.08-.59-.17-.81-.27-.23-.11-.4-.25-.52-.43s-.18-.42-.18-.72.07-.54.22-.76c.15-.22.35-.4.61-.52.26-.13.56-.19.9-.19.45,0,.81.12,1.1.35.28.24.45.56.5.97l-.77.13c-.1-.47-.38-.71-.87-.71-.24,0-.43.06-.57.18-.15.12-.22.28-.22.48s.07.35.22.46c.14.11.39.2.74.28.31.07.58.16.81.25.23.1.4.23.53.4s.19.41.19.71c0,.28-.08.53-.23.74s-.36.38-.63.51-.58.18-.94.18Z"/></g></svg>