<?xml version="1.0" encoding="UTF-8"?><svg id="Camada_2" xmlns="http://www.w3.org/2000/svg" viewBox="0 0 92.75 33.23"><defs><style>.cls-1{fill:#084ca4;}</style></defs><g id="Camada_1-2"><path class="cls-1" d="M3.59,23.78L.02,8.42c-.1-.44.23-.86.68-.86h4.68c.35,0,.64.25.69.59l1.73,11.21h1.14l1.72-11.21c.05-.34.35-.59.69-.59h4.71c.45,0,.79.42.68.86l-3.57,15.37c-.07.32-.36.54-.68.54H4.27c-.33,0-.61-.22-.68-.54Z"/><path class="cls-1" d="M24.86,14.99v8.64c0,.39-.31.7-.7.7h-4.76c-.39,0-.7-.31-.7-.7v-15.37c0-.39.31-.7.7-.7h4.76c.39,0,.7.31.7.7v2.8c.94-2.11,2.5-3.56,4.38-3.89.42-.07.81.27.81.7v5.43c0,.37-.28.68-.65.7-1.71.1-3.62.58-4.54.99Z"/><path class="cls-1" d="M38.45,13.62v10c0,.39-.31.7-.7.7h-4.76c-.39,0-.7-.31-.7-.7v-15.37c0-.39.31-.7.7-.7h4.76c.39,0,.7.31.7.7v2.41c1.2-2.17,3.44-3.57,5.87-3.57s4.35,1.39,5,3.76c1.23-2.3,3.57-3.76,6.07-3.76,3.28,0,5.32,2.27,5.32,5.97v10.55c0,.39-.31.7-.7.7h-4.79c-.39,0-.7-.31-.7-.7v-8.51c0-1.56-.75-2.53-2.34-2.53-1.04,0-1.95.49-2.56,1.01v10.04c0,.39-.31.7-.7.7h-4.79c-.39,0-.7-.31-.7-.7v-8.51c0-1.56-.71-2.53-2.3-2.53-1.07,0-2.04.52-2.66,1.04Z"/><path class="cls-1" d="M71.37,18.1h-1.75v5.53c0,.39-.31.7-.7.7h-4.76c-.39,0-.7-.31-.7-.7V.7c0-.39.31-.7.7-.7h4.76c.39,0,.7.31.7.7v12.69h1.62l2.57-5.44c.12-.25.36-.4.63-.4h4.86c.52,0,.86.55.62,1.02l-3.47,6.76,3.86,7.98c.23.47-.11,1.01-.63,1.01h-5.11c-.28,0-.53-.16-.64-.42l-2.57-5.81Z"/><path class="cls-1" d="M90.28,12.26v11.37c0,.39-.31.7-.7.7h-4.79c-.39,0-.7-.31-.7-.7v-11.37h-1.73c-.39,0-.7-.31-.7-.7v-3.3c0-.39.31-.7.7-.7h1.73V3.56c0-.39.31-.7.7-.7h4.79c.39,0,.7.31.7.7v4h1.76c.39,0,.7.31.7.7v3.3c0,.39-.31.7-.7.7h-1.76Z"/><path class="cls-1" d="M4.69,33.19v-3.18h.95c.62,0,1.09.13,1.4.4s.48.66.48,1.18c0,.32-.07.6-.21.85-.14.24-.34.43-.6.56-.26.13-.56.2-.91.2h-1.11ZM5.27,32.67h.51c.37,0,.66-.09.85-.27.19-.18.29-.45.29-.8s-.1-.64-.3-.82c-.2-.18-.5-.27-.91-.27h-.44v2.15Z"/><path class="cls-1" d="M11.44,30.51h-1.48v.82h1.41v.5h-1.41v.86h1.53l-.04.5h-2.06v-3.18h2.05v.5Z"/><path class="cls-1" d="M14.26,33.23c-.37,0-.67-.08-.87-.25-.21-.17-.33-.41-.36-.74l.55-.08c.05.38.29.57.71.57.18,0,.32-.04.43-.11.1-.07.15-.18.15-.31,0-.12-.05-.21-.15-.27-.1-.06-.26-.12-.49-.17-.21-.05-.39-.11-.54-.18-.15-.07-.26-.17-.34-.28s-.12-.28-.12-.48.05-.36.15-.5.23-.26.4-.35c.17-.08.37-.13.59-.13.3,0,.54.08.73.23.19.16.3.37.33.64l-.51.09c-.06-.31-.25-.47-.57-.47-.16,0-.28.04-.38.12-.1.08-.15.19-.15.32s.05.23.14.3c.1.07.26.13.49.19.21.05.38.1.53.17.15.06.27.15.35.27.08.11.12.27.12.47,0,.19-.05.35-.15.49-.1.14-.24.25-.42.33-.18.08-.38.12-.62.12Z"/><path class="cls-1" d="M17.24,33.19v-3.18h.58v3.18h-.58Z"/><path class="cls-1" d="M21.38,31.53h1.26v1.66h-.46l-.05-.34c-.1.14-.24.24-.4.29s-.34.09-.53.09c-.31,0-.57-.06-.79-.19-.22-.13-.4-.31-.52-.54-.12-.23-.18-.51-.18-.84s.07-.63.21-.89.34-.45.59-.6c.26-.14.56-.22.9-.22.28,0,.52.05.72.16.2.1.37.26.5.47l-.45.33c-.08-.14-.19-.25-.33-.32-.14-.07-.29-.1-.45-.1-.22,0-.41.05-.58.15-.16.1-.29.23-.38.41-.09.17-.13.38-.13.61,0,.33.08.59.25.78.17.18.4.28.7.28.14,0,.27-.03.4-.08.13-.05.23-.13.31-.23.08-.1.12-.22.12-.37v-.03h-.7v-.48Z"/><path class="cls-1" d="M26.64,30.01h.56v3.18h-.51l-1.58-2.22v2.22h-.56v-3.18h.51l1.58,2.22v-2.22Z"/><path class="cls-1" d="M31.63,33.19v-3.18h.95c.62,0,1.09.13,1.4.4s.48.66.48,1.18c0,.32-.07.6-.21.85-.14.24-.34.43-.6.56-.26.13-.56.2-.91.2h-1.11ZM32.22,32.67h.51c.37,0,.66-.09.85-.27.19-.18.29-.45.29-.8s-.1-.64-.3-.82c-.2-.18-.5-.27-.91-.27h-.44v2.15Z"/><path class="cls-1" d="M38.38,30.51h-1.48v.82h1.41v.5h-1.41v.86h1.53l-.04.5h-2.06v-3.18h2.05v.5Z"/><path class="cls-1" d="M44.7,30.51h-1.48v.82h1.41v.5h-1.41v.86h1.53l-.04.5h-2.06v-3.18h2.05v.5Z"/><path class="cls-1" d="M46.82,33.19h-.65l1.08-1.61-1.01-1.57h.66l.69,1.08.7-1.08h.62l-1.02,1.54,1.06,1.64h-.67l-.72-1.14-.74,1.14Z"/><path class="cls-1" d="M51.19,33.19h-.57v-3.18h1.12c.41,0,.73.08.95.25.22.17.33.41.33.73s-.12.57-.35.75c-.24.18-.58.27-1.03.27h-.44v1.18ZM51.72,30.48h-.53v1.04h.47c.27,0,.46-.04.59-.13.12-.09.18-.22.18-.4s-.06-.31-.17-.39c-.12-.08-.3-.12-.54-.12Z"/><path class="cls-1" d="M56.81,30.51h-1.48v.82h1.41v.5h-1.41v.86h1.53l-.04.5h-2.06v-3.18h2.05v.5Z"/><path class="cls-1" d="M61.16,32.63l.13.45c-.06.04-.13.08-.22.11-.09.03-.18.04-.27.04-.33,0-.6-.15-.79-.44l-.46-.71c-.05-.07-.1-.13-.15-.16-.05-.03-.11-.04-.17-.04h-.02v1.31h-.57v-3.18h.99c.4,0,.71.08.92.25s.31.4.31.69c0,.18-.04.33-.12.46-.08.13-.18.23-.32.3-.13.07-.29.12-.46.14.09.05.17.13.25.24l.25.37c.07.1.13.16.19.2.06.04.13.05.22.05.1,0,.2-.03.28-.08ZM59.59,30.48h-.38v.94h.35c.25,0,.43-.04.54-.11.12-.07.17-.19.17-.36,0-.31-.23-.47-.69-.47Z"/><path class="cls-1" d="M62.81,33.19v-3.18h.58v3.18h-.58Z"/><path class="cls-1" d="M67.45,30.51h-1.48v.82h1.41v.5h-1.41v.86h1.53l-.04.5h-2.06v-3.18h2.05v.5ZM67.24,29.7h-.52l-.3-.41-.3.41h-.52l.59-.75h.46l.59.75Z"/><path class="cls-1" d="M71.37,30.01h.56v3.18h-.51l-1.58-2.22v2.22h-.56v-3.18h.51l1.58,2.22v-2.22Z"/><path class="cls-1" d="M76.63,32.57c-.13.21-.3.38-.52.49-.22.11-.47.17-.74.17-.33,0-.61-.06-.84-.19-.23-.13-.41-.31-.54-.54-.12-.23-.19-.51-.19-.84s.07-.63.21-.89c.14-.25.33-.45.57-.6.25-.14.53-.22.85-.22.28,0,.51.05.71.16.2.1.36.26.49.48l-.45.32c-.08-.15-.19-.26-.32-.33-.13-.07-.28-.1-.44-.1-.2,0-.38.05-.54.15-.16.1-.28.24-.37.41-.09.17-.13.38-.13.61,0,.33.09.59.26.78.17.19.41.28.72.28.17,0,.33-.04.47-.12.14-.08.26-.2.35-.35l.44.34Z"/><path class="cls-1" d="M78.27,33.19v-3.18h.58v3.18h-.58Z"/><path class="cls-1" d="M80.48,33.19l1.36-3.18h.49l1.3,3.18h-.59l-.29-.73h-1.39l-.3.73h-.59ZM81.57,31.98h1l-.49-1.25-.51,1.25Z"/><path class="cls-1" d="M86.22,33.23c-.37,0-.67-.08-.87-.25-.21-.17-.33-.41-.36-.74l.55-.08c.05.38.29.57.71.57.18,0,.32-.04.43-.11.1-.07.15-.18.15-.31,0-.12-.05-.21-.15-.27-.1-.06-.26-.12-.49-.17-.21-.05-.39-.11-.54-.18-.15-.07-.26-.17-.34-.28s-.12-.28-.12-.48.05-.36.15-.5c.1-.15.23-.26.4-.35.17-.08.37-.13.59-.13.3,0,.54.08.73.23.19.16.3.37.33.64l-.51.09c-.06-.31-.25-.47-.57-.47-.16,0-.28.04-.38.12-.1.08-.15.19-.15.32s.05.23.14.3c.1.07.26.13.49.19.21.05.38.1.53.17.15.06.27.15.35.27s.12.27.12.47c0,.19-.05.35-.15.49s-.24.25-.42.33-.38.12-.62.12Z"/></g></svg>