<?xml version="1.0" encoding="UTF-8"?><svg id="Camada_2" xmlns="http://www.w3.org/2000/svg" viewBox="0 0 26.98 57.82"><defs><style>.cls-1{fill:#0097d8;}</style></defs><g id="Camada_1-2"><path class="cls-1" d="M13.48,57.82c-.54,0-.98-.44-.98-.98v-13.26c0-.54.44-.98.98-.98s.98.44.98.98v13.23c.01.54-.41.99-.95,1.01,0,0-.02,0-.03,0Z"/><path class="cls-1" d="M13.48,57.82c-.24,0-.47-.09-.65-.25l-5.88-5.15c-.41-.36-.44-.98-.08-1.39s.98-.44,1.39-.08h0l5.88,5.15c.41.35.45.96.1,1.37,0,0,0,0,0,0-.19.22-.46.34-.75.34Z"/><path class="cls-1" d="M13.48,57.82c-.54,0-.98-.43-.99-.97,0-.29.12-.56.34-.75l5.88-5.15c.41-.36,1.03-.32,1.39.08s.32,1.03-.08,1.39h0l-5.88,5.15c-.18.16-.41.25-.65.25Z"/><path class="cls-1" d="M17.1,38.7h-7.23C4.42,38.7,0,34.28,0,28.84V9.9C-.01,4.44,4.4.01,9.86,0c0,0,0,0,0,0h7.23c5.45,0,9.88,4.41,9.89,9.86,0,0,0,0,0,0v18.97c0,5.45-4.43,9.87-9.88,9.87h0ZM9.87,1.96c-4.37,0-7.9,3.54-7.91,7.91v18.97c0,4.36,3.54,7.9,7.91,7.91h7.23c4.37,0,7.92-3.53,7.93-7.9h0V9.9c.01-4.37-3.52-7.93-7.89-7.94-.01,0-.03,0-.04,0h-7.23Z"/><path class="cls-1" d="M13.48,16.27c-.54,0-.98-.44-.98-.98h0v-4.92c0-.54.44-.98.98-.98s.98.44.98.98v4.92c0,.54-.44.98-.98.98h0Z"/></g></svg>