<?xml version="1.0" encoding="UTF-8"?><svg id="Camada_2" xmlns="http://www.w3.org/2000/svg" xmlns:xlink="http://www.w3.org/1999/xlink" viewBox="0 0 116.24 33.2"><defs><style>.cls-1{fill:#1c2029;}.cls-2{fill:url(#Blue_Degrade);}</style><linearGradient id="Blue_Degrade" x1="81.88" y1="33.03" x2="81.88" y2="0" gradientUnits="userSpaceOnUse"><stop offset="0" stop-color="#03549d"/><stop offset=".61" stop-color="#5aa0d6"/><stop offset="1" stop-color="#baddf6"/></linearGradient></defs><g id="Camada_1-2"><path class="cls-2" d="M115.66,5.24h-11.46v24.56h-2.01V5.24h-8.32l2.06-2.05h20.3v-.33c0-1.58-1.28-2.86-2.86-2.86h-62.98c-1.58,0-2.86,1.28-2.86,2.86v27.3c0,1.58,1.28,2.86,2.86,2.86h1.2V3.19h1.7l.22.33,9.76,14.43,9.79-14.44.22-.32h1.7v26.51h-2.01V7.17l-8.84,13.15-.22.33h-1.25l-.22-.33-8.84-13.15v25.85h59.76c1.58,0,2.86-1.28,2.86-2.86V5.24h-.58ZM93.82,29.7h-1.1l-.21-.18-13.47-11.87v12.06h-2.01V3.22h2.01v11.98l11.68-11.77.3-.25h2.82l-1.37,1.3-11.76,11.89,13.6,12.03,1.46,1.29h-1.95Z"/><polygon class="cls-1" points="22.33 2.8 21.76 2.8 21.62 3.24 12.56 29.96 2.3 .61 2.15 .17 1.59 .17 .98 .17 0 .17 .27 .95 11.57 32.76 11.72 33.2 12.28 33.2 12.89 33.2 13.45 33.2 13.6 32.75 23.65 3.57 23.91 2.8 22.94 2.8 22.33 2.8"/><path class="cls-1" d="M42.12,28.55l-8.94-9.12h2.12c2.53,0,4.67-.87,6.18-2.53,1.34-1.46,2.07-3.42,2.07-5.53s-.74-4.06-2.07-5.53c-1.51-1.65-3.64-2.53-6.18-2.53h-9.39v26.51h2.01V5.38h7.38c1.94,0,3.56.65,4.68,1.87,1,1.09,1.55,2.56,1.55,4.15,0,2.9-1.95,6.02-6.23,6.02h-5.6v1.6l.24.22,10.37,10.4.21.19h3.03l-1.42-1.29Z"/></g></svg>